<?xml version="1.0" encoding="UTF-8" standalone="no"?>
<svg
   xmlns:dc="http://purl.org/dc/elements/1.1/"
   xmlns:cc="http://creativecommons.org/ns#"
   xmlns:rdf="http://www.w3.org/1999/02/22-rdf-syntax-ns#"
   xmlns:svg="http://www.w3.org/2000/svg"
   xmlns="http://www.w3.org/2000/svg"
   viewBox="0 0 500 500"
   height="500"
   width="500"
   xml:space="preserve"
   id="svg2"
   version="1.1"><metadata
     id="metadata8"><rdf:RDF><cc:Work
         rdf:about=""><dc:format>image/svg+xml</dc:format><dc:type
           rdf:resource="http://purl.org/dc/dcmitype/StillImage" /></cc:Work></rdf:RDF></metadata><defs
     id="defs6"><clipPath
       id="clipPath14"
       clipPathUnits="userSpaceOnUse"><path
         id="path12"
         d="M 0,8.039989 H 375 V 383.03998 H 0 Z" /></clipPath><clipPath
       id="clipPath24"
       clipPathUnits="userSpaceOnUse"><path
         style="clip-rule:evenodd"
         id="path22"
         d="M 0,0 H 1562.5 V 1593.75 H 0 Z" /></clipPath><clipPath
       id="clipPath36"
       clipPathUnits="userSpaceOnUse"><path
         style="clip-rule:evenodd"
         id="path34"
         d="M 0,0 H 1562.5 V 1562.5 H 0 Z" /></clipPath><clipPath
       id="clipPath48"
       clipPathUnits="userSpaceOnUse"><path
         style="clip-rule:evenodd"
         id="path46"
         d="M 0,0 H 1562.5 V 1562.5 H 0 Z" /></clipPath><clipPath
       id="clipPath60"
       clipPathUnits="userSpaceOnUse"><path
         style="clip-rule:evenodd"
         id="path58"
         d="m 408.7244,267.33435 h 740.625 v 740.62495 h -740.625 z" /></clipPath><clipPath
       id="clipPath72"
       clipPathUnits="userSpaceOnUse"><path
         style="clip-rule:evenodd"
         id="path70"
         d="M 0,0 H 1562.5 V 1562.5 H 0 Z" /></clipPath></defs><g
     clip-path="url(#clipPath14)"
     transform="matrix(1.3333333,0,0,-1.3333333,0,510.71997)"
     id="g10"><g
       transform="matrix(0.31999998,0,0,0.31999998,0,9.434666e-6)"
       id="g16"><g
         id="g18"><g
           clip-path="url(#clipPath24)"
           id="g20"><g
             transform="scale(3.125)"
             id="g26"><path
               id="path28"
               style="fill:#ffffff;fill-opacity:1;fill-rule:nonzero;stroke:none"
               d="M 0,0 H 500 V 510 H 0 Z" /></g></g></g><g
         id="g30"><g
           clip-path="url(#clipPath36)"
           id="g32"><g
             transform="scale(3.125)"
             id="g38"><path
               id="path40"
               style="fill:#ffffff;fill-opacity:1;fill-rule:nonzero;stroke:none"
               d="M 0,0 H 500 V 500 H 0 Z" /></g></g></g><g
         id="g42"><g
           clip-path="url(#clipPath48)"
           id="g44"><g
             transform="scale(3.125)"
             id="g50"><path
               id="path52"
               style="fill:#42d7e6;fill-opacity:1;fill-rule:nonzero;stroke:none"
               d="M 0,0 H 500 V 500 H 0 Z" /></g></g></g><g
         id="g54"><g
           clip-path="url(#clipPath60)"
           id="g56"><g
             transform="matrix(1.5146882,0,0,1.5146882,408.7244,267.33435)"
             id="g62"><path
               id="path64"
               style="fill:#ffffff;fill-opacity:1;fill-rule:nonzero;stroke:none"
               d="M 244.48199,0 C 109.675,0 0,109.675 0,244.48199 0,379.284 109.675,488.96198 244.48199,488.96198 c 134.80799,0 244.47999,-109.67801 244.47999,-244.48 C 488.96201,109.675 379.29099,0 244.48199,0 Z m 7.64301,131.92999 c 31.31299,-0.826 66.366,-4.317 104.271,-12.097 13.62701,33.11701 21.238,72.47899 22.44198,116.97701 H 252.125 Z m 0,-15.32299 V 16.167 c 9.15799,2.651001 34.474,11.743999 60.069,36.599998 15.05801,14.628998 27.668,32.319001 37.73199,52.740002 -35.49499,7.074 -68.35998,10.305 -97.80099,11.1 z m -15.287,0.205 c -26.956,-0.011 -50.66001,-1.986 -70.418,-4.67601 -10.114,-1.375 -19.565,-2.97699 -28.31999,-4.69799 10.07299,-20.924008 22.757,-39.044003 37.97799,-53.991005 25.64901,-25.195999 51.46401,-34.536999 60.76,-37.263001 z m -73.183,10.431 c 20.52099,2.817 45.14999,4.897 73.183,4.908 V 236.81 H 110.125 c 1.179,-43.601 8.506,-82.28 21.625,-114.986 9.763,1.986 20.405,3.839 31.905,5.419 z M 94.841003,236.81 H 15.486 c 1.673,-50.627 19.841,-97.15 49.304001,-134.349 8.473999,3.436 26.202003,9.962 51.851009,16.046 C 101.091,158.504 95.786003,201.078 94.841003,236.81 Z m -0.138,15.34199 C 95.042,299.56699 102.96101,337.327 114.569,367.26498 97.388,371.32999 79.681999,376.27399 61.517002,382.267 33.984001,345.79999 17.093,300.88199 15.486,252.15199 Z m 15.269997,0 h 126.865 v 99.03899 c -32.109,0.84601 -68.16201,4.48498 -107.178,12.68799 C 116.977,332.013 110.293,294.46301 109.973,252.15199 Z M 236.838,366.53601 V 469.255 C 224.493,465.45401 201.075,456.05301 177.737,434.94702 160.64999,419.49701 146.683,400.46301 135.95599,378.25201 172.62801,370.746 206.549,367.353 236.838,366.53601 Z m 15.287,-0.20401 c 26.95499,0.012 50.65201,1.98801 70.41602,4.67899 11.30099,1.535 21.77301,3.35299 31.37399,5.30899 -10.711,22.763 -24.76901,42.25 -42.04599,58.03601 -23.42099,21.41 -47.24399,30.99399 -59.744,34.87698 V 366.332 Z m 73.177,-10.43399 c -20.51501,-2.81699 -45.14999,-4.89499 -73.17801,-4.91101 V 252.15201 H 378.991 c -0.314,41.42801 -6.728,78.31399 -18.901,109.75601 -10.53901,-2.21002 -22.14399,-4.27103 -34.788,-6.01001 z m 68.96799,-103.74602 h 79.20999 c -1.61301,48.652 -18.449,93.51 -45.90701,129.95 -6.10401,-2.63001 -24.232,-9.91 -52.426,-16.78101 14.40604,-38.36197 18.85803,-78.86599 19.12302,-113.16899 z M 394.12201,236.81 C 393.16,200.492 387.69702,157.09799 371.547,116.53 c 16.92999,-3.919 34.37899,-8.713 52.27499,-14.502 29.668,37.271 47.979,83.957 49.65799,134.783 h -79.35797 z m 18.884,-147.409998 c -16.29999,5.093002 -32.20801,9.340003 -47.65799,12.836998 -10.34601,-21.918 -24.16,-42.620999 -42.504,-60.437001 -8.38,-8.145 -16.742,-14.74 -24.64599,-20.083999 44.81796,10.806999 84.53897,34.821998 114.80798,67.684002 z M 190.765,21.716 C 182.866,27.059999 174.5,33.654999 166.119,41.799999 147.24701,60.127998 133.181,81.520996 122.73601,104.146 100.95001,99.091995 84.794006,93.639999 75.326004,90.076996 105.667,56.862999 145.63699,32.598 190.765,21.716 Z M 71.892998,395.039 C 88.569,389.703 104.839,385.26199 120.63899,381.59399 c 13.72099,29.54102 30.972,50.33802 46.84401,64.693 10.666,9.64499 21.332,17.052 31.16699,22.729 C 148.54201,458.80301 104.336,432.17899 71.892998,395.039 Z M 290.315,469.01599 c 9.832,-5.67801 20.504,-13.08499 31.16501,-22.729 21.39801,-19.35001 36.78699,-42.29999 47.746,-66.594 C 392.746,385.328 409.311,391.315 417.492,394.55798 385.01199,431.95801 340.63501,458.759 290.315,469.01599 Z" /></g></g></g><g
         id="g66"><g
           clip-path="url(#clipPath72)"
           id="g68"><g
             transform="matrix(4.9869633,0,0,4.9869633,235.30498,1104.5758)"
             id="g74"><text
               id="text78"
               style="font-variant:normal;font-weight:bold;font-size:20.32999992px;font-family:OpenSans;-inkscape-font-specification:OpenSans-Bold;writing-mode:lr-tb;fill:#ffffff;fill-opacity:1;fill-rule:nonzero;stroke:none"
               transform="translate(13.125,20)"><tspan
                 id="tspan76"
                 y="0"
                 x="0 14.783611 32.793114 49.988697 68.345612 81.948044 97.198166 111.71378 118.82471 133.60832 151.61783 168.49579 181.71112">COUNTRY CODES</tspan></text>
</g></g></g></g></g></svg>